<svg xmlns="http://www.w3.org/2000/svg" viewBox="0 0 280 200" width="280" height="200">
  <rect width="280" height="200" fill="#f8f9fa" rx="8"/>
  <!-- Stand bag -->
  <rect x="100" y="40" width="80" height="130" fill="#1a1a1a" rx="10"/>
  <rect x="104" y="43" width="24" height="26" fill="#111" rx="4"/>
  <rect x="132" y="43" width="24" height="26" fill="#111" rx="4"/>
  <rect x="158" y="43" width="18" height="26" fill="#111" rx="3"/>
  <rect x="110" y="24" width="5" height="24" fill="#2a2a2a" rx="2"/>
  <rect x="120" y="21" width="5" height="27" fill="#2a2a2a" rx="2"/>
  <rect x="130" y="23" width="5" height="25" fill="#2a2a2a" rx="2"/>
  <!-- Waterproof zipper detail -->
  <rect x="104" y="85" width="72" height="48" fill="#111" rx="5"/>
  <rect x="108" y="89" width="64" height="40" fill="#1a1a1a" rx="4"/>
  <!-- Waterproof badge -->
  <rect x="112" y="95" width="56" height="16" fill="#003366" rx="3"/>
  <text x="140" y="106" text-anchor="middle" font-family="system-ui,sans-serif" font-size="7" fill="#7dc8e0" font-weight="700">WATERPROOF</text>
  <rect x="104" y="142" width="72" height="24" fill="#111" rx="0 0 6 6"/>
  <text x="140" y="156" text-anchor="middle" font-family="Arial,sans-serif" font-size="7" fill="#ba0c2f" font-weight="700">CALLAWAY</text>
  <rect x="96" y="62" width="6" height="78" fill="#0a0a0a" rx="3"/>
  <rect x="178" y="62" width="6" height="78" fill="#0a0a0a" rx="3"/>
  <rect x="100" y="164" width="6" height="18" fill="#888" rx="2" transform="rotate(-18,103,173)"/>
  <rect x="174" y="164" width="6" height="18" fill="#888" rx="2" transform="rotate(18,177,173)"/>
  <text x="140" y="188" text-anchor="middle" font-family="system-ui,sans-serif" font-size="9" font-weight="700" fill="#1a1a1a">Callaway Chev Dry</text>
</svg>