<svg xmlns="http://www.w3.org/2000/svg" viewBox="0 0 280 200" width="280" height="200">
  <rect width="280" height="200" fill="#f8f9fa" rx="8"/>
  <rect x="108" y="45" width="64" height="120" fill="#002147" rx="8"/>
  <rect x="112" y="48" width="20" height="30" fill="#001530" rx="4"/>
  <rect x="134" y="48" width="20" height="30" fill="#001530" rx="4"/>
  <rect x="156" y="48" width="12" height="30" fill="#001530" rx="3"/>
  <rect x="118" y="25" width="6" height="30" fill="#1a1a1a" rx="2"/>
  <rect x="128" y="22" width="6" height="33" fill="#1a1a1a" rx="2"/>
  <rect x="138" y="24" width="6" height="31" fill="#1a1a1a" rx="2"/>
  <rect x="148" y="26" width="6" height="28" fill="#1a1a1a" rx="2"/>
  <rect x="158" y="28" width="6" height="26" fill="#1a1a1a" rx="2"/>
  <rect x="112" y="100" width="56" height="40" fill="#001530" rx="4"/>
  <rect x="116" y="104" width="48" height="32" fill="#002558" rx="3"/>
  <rect x="108" y="160" width="6" height="22" fill="#888" rx="2" transform="rotate(-15,111,170)"/>
  <rect x="166" y="160" width="6" height="22" fill="#888" rx="2" transform="rotate(15,169,170)"/>
  <text x="124" y="122" font-family="Arial,sans-serif" font-size="7" font-weight="900" fill="#ba0c2f">CALLAWAY</text>
  <text x="130" y="133" font-family="Arial,sans-serif" font-size="7" fill="white">STRATA</text>
  <text x="140" y="178" text-anchor="middle" font-family="system-ui,sans-serif" font-size="9" font-weight="700" fill="#002147">Callaway Strata</text>
  <text x="140" y="192" text-anchor="middle" font-family="system-ui,sans-serif" font-size="8" fill="#666">Complete Club Set</text>
</svg>