<svg xmlns="http://www.w3.org/2000/svg" viewBox="0 0 280 200" width="280" height="200">
  <rect width="280" height="200" fill="#f8f9fa" rx="8"/>
  <path d="M90 158 Q85 102 95 70 Q105 44 124 42 Q144 40 154 46 Q164 52 166 70 Q168 90 163 158 Z" fill="#f0e8d8"/>
  <path d="M90 122 Q76 117 73 98 Q70 80 79 70 Q89 63 95 73 Z" fill="#f0e8d8"/>
  <path d="M110 42 Q108 28 113 25 Q118 22 119 30 Q121 38 121 42" fill="#f0e8d8" stroke="#e0d4c0" stroke-width="0.8"/>
  <path d="M126 40 Q125 26 130 23 Q135 21 136 29 Q137 37 137 41" fill="#f0e8d8" stroke="#e0d4c0" stroke-width="0.8"/>
  <path d="M142 41 Q142 27 147 24 Q152 22 153 30 Q154 38 153 42" fill="#f0e8d8" stroke="#e0d4c0" stroke-width="0.8"/>
  <rect x="88" y="148" width="82" height="18" fill="#002147" rx="4"/>
  <rect x="138" y="148" width="14" height="18" fill="#c0932a" rx="2"/>
  <text x="140" y="178" text-anchor="middle" font-family="system-ui,sans-serif" font-size="9" font-weight="700" fill="#002147">Callaway Dawn Patrol</text>
  <text x="140" y="192" text-anchor="middle" font-family="system-ui,sans-serif" font-size="8" fill="#666">Value Golf Glove</text>
</svg>