<svg xmlns="http://www.w3.org/2000/svg" viewBox="0 0 280 200" width="280" height="200">
  <rect width="280" height="200" fill="#f8f9fa" rx="8"/>
  <!-- Mid-mallet putter -->
  <rect x="75" y="92" width="140" height="44" fill="#c8a84b" rx="5"/>
  <rect x="75" y="92" width="140" height="26" fill="#d4b858" rx="5 5 0 0"/>
  <!-- Face insert -->
  <rect x="75" y="94" width="22" height="40" fill="#e8e0d0" rx="3 0 0 3"/>
  <line x1="79" y1="97" x2="79" y2="131" stroke="#ccc" stroke-width="0.7"/>
  <line x1="82" y1="97" x2="82" y2="131" stroke="#ccc" stroke-width="0.7"/>
  <line x1="85" y1="97" x2="85" y2="131" stroke="#ccc" stroke-width="0.7"/>
  <line x1="88" y1="97" x2="88" y2="131" stroke="#ccc" stroke-width="0.7"/>
  <line x1="91" y1="97" x2="91" y2="131" stroke="#ccc" stroke-width="0.7"/>
  <rect x="86" y="28" width="7" height="68" fill="#aaa" rx="3" transform="rotate(4, 89, 58)"/>
  <rect x="82" y="20" width="14" height="30" fill="#2a2a2a" rx="4"/>
  <text x="180" y="112" text-anchor="end" font-family="system-ui,sans-serif" font-size="7" fill="#1a1a1a" font-weight="700">CLEVELAND</text>
  <text x="180" y="122" text-anchor="end" font-family="system-ui,sans-serif" font-size="6" fill="#555">HB SOFT MILLED</text>
  <text x="140" y="178" text-anchor="middle" font-family="system-ui,sans-serif" font-size="9" font-weight="700" fill="#c8a84b">Cleveland HB Soft Milled</text>
  <text x="140" y="192" text-anchor="middle" font-family="system-ui,sans-serif" font-size="8" fill="#666">Budget Putter</text>
</svg>