<svg xmlns="http://www.w3.org/2000/svg" viewBox="0 0 280 200" width="280" height="200">
  <rect width="280" height="200" fill="#f8f9fa" rx="8"/>
  <path d="M60 148 Q65 152 200 152 Q215 152 220 145 Q215 138 200 140 L65 140 Q60 140 60 148 Z" fill="#222"/>
  <circle cx="85" cy="152" r="4" fill="#333"/>
  <circle cx="110" cy="153" r="4" fill="#333"/>
  <circle cx="135" cy="153" r="4" fill="#333"/>
  <circle cx="160" cy="153" r="4" fill="#333"/>
  <circle cx="185" cy="151" r="4" fill="#333"/>
  <path d="M65 140 Q68 105 78 88 Q95 70 125 65 Q155 62 178 72 Q198 82 204 102 Q208 120 205 140 Z" fill="#8B7355"/>
  <!-- ECCO distinctive styling - YAK leather look -->
  <path d="M68 120 Q120 112 200 118" fill="none" stroke="#7a6545" stroke-width="1"/>
  <path d="M70 130 Q122 122 202 128" fill="none" stroke="#7a6545" stroke-width="1"/>
  <!-- Sole detail -->
  <path d="M65 140 Q67 135 200 136 Q205 138 205 140" fill="#3a3a3a"/>
  <!-- ECCO logo -->
  <text x="130" y="105" text-anchor="middle" font-family="Arial,sans-serif" font-size="11" font-weight="700" fill="#fff" opacity="0.6">ECCO</text>
  <text x="140" y="173" text-anchor="middle" font-family="system-ui,sans-serif" font-size="9" font-weight="700" fill="#8B7355">ECCO Biom C4</text>
  <text x="140" y="188" text-anchor="middle" font-family="system-ui,sans-serif" font-size="8" fill="#666">Premium Golf Shoe</text>
</svg>