<svg xmlns="http://www.w3.org/2000/svg" viewBox="0 0 280 200" width="280" height="200">
  <rect width="280" height="200" fill="#f8f9fa" rx="8"/>
  <path d="M60 148 Q65 152 200 152 Q215 152 220 145 Q215 138 200 140 L65 140 Q60 140 60 148 Z" fill="#111"/>
  <circle cx="85" cy="152" r="4" fill="#222"/>
  <circle cx="105" cy="153" r="4" fill="#222"/>
  <circle cx="125" cy="153" r="4" fill="#222"/>
  <circle cx="145" cy="153" r="4" fill="#222"/>
  <circle cx="165" cy="153" r="4" fill="#222"/>
  <circle cx="185" cy="151" r="4" fill="#222"/>
  <path d="M65 140 Q68 105 78 88 Q95 70 125 65 Q155 62 175 72 Q195 80 202 100 Q208 118 205 140 Z" fill="#f5f0e8"/>
  <!-- Tour shoe premium details -->
  <path d="M80 108 Q120 100 165 104" fill="none" stroke="#e0d8c8" stroke-width="1"/>
  <path d="M78 120 Q118 112 163 116" fill="none" stroke="#e0d8c8" stroke-width="1"/>
  <!-- Laces -->
  <line x1="115" y1="88" x2="155" y2="84" stroke="#888" stroke-width="1.5"/>
  <line x1="112" y1="95" x2="158" y2="91" stroke="#888" stroke-width="1.5"/>
  <line x1="110" y1="102" x2="160" y2="98" stroke="#888" stroke-width="1.5"/>
  <!-- FJ branding -->
  <text x="82" y="78" font-family="Georgia,serif" font-size="12" font-weight="700" fill="#002855" opacity="0.5">FJ</text>
  <text x="160" y="112" text-anchor="middle" font-family="system-ui,sans-serif" font-size="6" fill="#002855">TOUR ALPHA</text>
  <text x="140" y="173" text-anchor="middle" font-family="system-ui,sans-serif" font-size="9" font-weight="700" fill="#002855">FootJoy Tour Alpha</text>
  <text x="140" y="188" text-anchor="middle" font-family="system-ui,sans-serif" font-size="8" fill="#666">Premium Golf Shoe</text>
</svg>