<svg xmlns="http://www.w3.org/2000/svg" viewBox="0 0 280 200" width="280" height="200">
  <rect width="280" height="200" fill="#f8f9fa" rx="8"/>
  <!-- Rain glove - darker, more textured -->
  <path d="M88 155 Q83 98 93 66 Q103 40 122 38 Q142 36 152 42 Q164 50 166 68 Q168 88 163 155 Z" fill="#2c4a8c"/>
  <path d="M88 118 Q74 113 71 92 Q68 74 78 66 Q88 60 93 70 Z" fill="#2c4a8c"/>
  <path d="M108 38 Q106 24 111 21 Q117 19 118 27 Q120 35 120 38" fill="#2c4a8c" stroke="#1a3060" stroke-width="0.8"/>
  <path d="M124 36 Q123 22 128 19 Q133 17 134 25 Q135 33 135 37" fill="#2c4a8c" stroke="#1a3060" stroke-width="0.8"/>
  <path d="M140 37 Q140 23 145 20 Q150 18 151 26 Q152 34 151 38" fill="#2c4a8c" stroke="#1a3060" stroke-width="0.8"/>
  <!-- Microfiber texture dots -->
  <circle cx="112" cy="78" r="2" fill="#1a3060" opacity="0.5"/>
  <circle cx="124" cy="74" r="2" fill="#1a3060" opacity="0.5"/>
  <circle cx="136" cy="73" r="2" fill="#1a3060" opacity="0.5"/>
  <circle cx="148" cy="76" r="2" fill="#1a3060" opacity="0.5"/>
  <!-- Rain droplets -->
  <path d="M178 55 Q180 50 178 48" fill="none" stroke="#aac4ff" stroke-width="1.5"/>
  <path d="M192 62 Q194 57 192 55" fill="none" stroke="#aac4ff" stroke-width="1.5"/>
  <path d="M185 44 Q187 39 185 37" fill="none" stroke="#aac4ff" stroke-width="1.5"/>
  <rect x="86" y="145" width="82" height="18" fill="#002855" rx="4"/>
  <text x="140" y="178" text-anchor="middle" font-family="system-ui,sans-serif" font-size="9" font-weight="700" fill="#2c4a8c">FootJoy RainGrip</text>
  <text x="140" y="192" text-anchor="middle" font-family="system-ui,sans-serif" font-size="8" fill="#666">Rain Golf Glove</text>
</svg>