<svg xmlns="http://www.w3.org/2000/svg" viewBox="0 0 280 200" width="280" height="200">
  <rect width="280" height="200" fill="#f8f9fa" rx="8"/>
  <path d="M60 148 Q65 152 200 152 Q215 152 220 145 Q215 138 200 140 L65 140 Q60 140 60 148 Z" fill="#222"/>
  <circle cx="85" cy="152" r="4" fill="#555"/>
  <circle cx="108" cy="153" r="4" fill="#555"/>
  <circle cx="131" cy="153" r="4" fill="#555"/>
  <circle cx="154" cy="153" r="4" fill="#555"/>
  <circle cx="177" cy="152" r="4" fill="#555"/>
  <!-- Spikeless upper -->
  <path d="M65 140 Q68 108 78 90 Q95 72 125 68 Q155 65 178 74 Q198 84 204 105 Q208 122 205 140 Z" fill="#1a1a1a"/>
  <!-- Arch fit insole indicator -->
  <path d="M75 132 Q105 126 145 128 Q175 130 202 134" fill="none" stroke="#e63946" stroke-width="2" opacity="0.6"/>
  <!-- Skechers S logo area -->
  <text x="128" y="108" text-anchor="middle" font-family="Arial,sans-serif" font-size="16" font-weight="900" fill="#e63946" opacity="0.7">S</text>
  <!-- Mesh texture suggestion -->
  <path d="M80 95 Q95 90 110 92 Q125 88 140 90" fill="none" stroke="#333" stroke-width="0.8"/>
  <path d="M82 103 Q97 98 112 100 Q127 96 142 98" fill="none" stroke="#333" stroke-width="0.8"/>
  <text x="140" y="173" text-anchor="middle" font-family="system-ui,sans-serif" font-size="9" font-weight="700" fill="#1a1a1a">Skechers Go Golf</text>
  <text x="140" y="188" text-anchor="middle" font-family="system-ui,sans-serif" font-size="8" fill="#666">Spikeless Golf Shoe</text>
</svg>