<svg xmlns="http://www.w3.org/2000/svg" viewBox="0 0 280 200" width="280" height="200">
  <rect width="280" height="200" fill="#f8f9fa" rx="8"/>
  <circle cx="140" cy="95" r="58" fill="white"/>
  <g fill="none" stroke="#bbb" stroke-width="0.8" opacity="0.65">
    <circle cx="140" cy="42" r="3.5"/><circle cx="120" cy="48" r="3.5"/><circle cx="160" cy="48" r="3.5"/>
    <circle cx="105" cy="58" r="3.5"/><circle cx="140" cy="55" r="3.5"/><circle cx="175" cy="58" r="3.5"/>
    <circle cx="93" cy="72" r="3.5"/><circle cx="127" cy="65" r="3.5"/>
    <circle cx="161" cy="65" r="3.5"/><circle cx="186" cy="88" r="3.5"/>
    <circle cx="86" cy="88" r="3.5"/><circle cx="102" cy="83" r="3.5"/>
    <circle cx="170" cy="83" r="3.5"/><circle cx="102" cy="107" r="3.5"/>
    <circle cx="136" cy="112" r="3.5"/><circle cx="153" cy="110" r="3.5"/>
  </g>
  <text x="140" y="88" text-anchor="middle" font-family="Arial,sans-serif" font-size="11" font-weight="700" fill="#003087">SRIXON</text>
  <text x="140" y="101" text-anchor="middle" font-family="Arial,sans-serif" font-size="10" fill="#333">Soft Feel</text>
  <text x="140" y="178" text-anchor="middle" font-family="system-ui,sans-serif" font-size="9" font-weight="700" fill="#003087">Srixon Soft Feel</text>
  <text x="140" y="192" text-anchor="middle" font-family="system-ui,sans-serif" font-size="8" fill="#666">Golf Ball (Dozen)</text>
</svg>