<svg xmlns="http://www.w3.org/2000/svg" viewBox="0 0 280 200" width="280" height="200">
  <rect width="280" height="200" fill="#f8f9fa" rx="8"/>
  <!-- Premium leather glove -->
  <path d="M88 158 Q83 100 93 68 Q103 42 122 40 Q142 38 152 44 Q164 52 166 70 Q168 90 163 158 Z" fill="#e8d5b0"/>
  <path d="M88 120 Q74 115 71 95 Q68 76 78 68 Q88 62 93 72 Z" fill="#e8d5b0"/>
  <path d="M108 40 Q106 26 111 23 Q117 21 118 29 Q120 37 120 40" fill="#e8d5b0" stroke="#d0ba90" stroke-width="0.8"/>
  <path d="M125 38 Q124 24 129 21 Q134 19 135 27 Q136 35 136 39" fill="#e8d5b0" stroke="#d0ba90" stroke-width="0.8"/>
  <path d="M141 39 Q141 25 146 22 Q151 20 152 28 Q153 36 152 40" fill="#e8d5b0" stroke="#d0ba90" stroke-width="0.8"/>
  <!-- Cabretta leather texture -->
  <path d="M100 75 Q125 70 155 73" fill="none" stroke="#d0ba90" stroke-width="0.6"/>
  <path d="M98 88 Q123 82 158 85" fill="none" stroke="#d0ba90" stroke-width="0.6"/>
  <path d="M97 101 Q122 95 160 98" fill="none" stroke="#d0ba90" stroke-width="0.6"/>
  <!-- Perforations on back -->
  <circle cx="118" cy="82" r="2" fill="#d4be9a"/>
  <circle cx="131" cy="78" r="2" fill="#d4be9a"/>
  <circle cx="144" cy="79" r="2" fill="#d4be9a"/>
  <circle cx="156" cy="82" r="2" fill="#d4be9a"/>
  <!-- Wrist tab -->
  <rect x="86" y="148" width="82" height="18" fill="#002855" rx="4"/>
  <rect x="136" y="148" width="14" height="18" fill="#a8996e" rx="2"/>
  <!-- T logo -->
  <text x="156" y="130" font-family="Georgia,serif" font-size="14" font-weight="700" fill="#002855" opacity="0.3">T</text>
  <text x="140" y="178" text-anchor="middle" font-family="system-ui,sans-serif" font-size="9" font-weight="700" fill="#002855">Titleist Players Flex</text>
  <text x="140" y="192" text-anchor="middle" font-family="system-ui,sans-serif" font-size="8" fill="#666">Premium Golf Glove</text>
</svg>