<svg xmlns="http://www.w3.org/2000/svg" viewBox="0 0 280 200" width="280" height="200">
  <rect width="280" height="200" fill="#f8f9fa" rx="8"/>
  <rect x="100" y="38" width="80" height="130" fill="#c8102e" rx="10"/>
  <rect x="104" y="41" width="24" height="28" fill="#a8001e" rx="4"/>
  <rect x="132" y="41" width="24" height="28" fill="#a8001e" rx="4"/>
  <rect x="158" y="41" width="18" height="28" fill="#a8001e" rx="3"/>
  <rect x="110" y="22" width="5" height="26" fill="#1a1a1a" rx="2"/>
  <rect x="120" y="19" width="5" height="29" fill="#1a1a1a" rx="2"/>
  <rect x="130" y="21" width="5" height="27" fill="#1a1a1a" rx="2"/>
  <rect x="140" y="23" width="5" height="24" fill="#1a1a1a" rx="2"/>
  <rect x="104" y="85" width="72" height="50" fill="#a8001e" rx="5"/>
  <rect x="108" y="89" width="64" height="42" fill="#c8102e" rx="4"/>
  <!-- T logo -->
  <text x="140" y="114" text-anchor="middle" font-family="Georgia,serif" font-size="16" font-weight="700" fill="white" opacity="0.5">T</text>
  <rect x="104" y="142" width="72" height="22" fill="#8a0018" rx="0 0 6 6"/>
  <rect x="96" y="60" width="6" height="80" fill="#880015" rx="3"/>
  <rect x="178" y="60" width="6" height="80" fill="#880015" rx="3"/>
  <rect x="100" y="162" width="6" height="20" fill="#888" rx="2" transform="rotate(-18,103,172)"/>
  <rect x="174" y="162" width="6" height="20" fill="#888" rx="2" transform="rotate(18,177,172)"/>
  <text x="140" y="188" text-anchor="middle" font-family="system-ui,sans-serif" font-size="9" font-weight="700" fill="#c8102e">Titleist Players 4 StaDry</text>
</svg>